<?xml version="1.0" encoding="UTF-8" standalone="no"?>
<!-- Created with Inkscape (http://www.inkscape.org/) -->

<svg
   xmlns:dc="http://purl.org/dc/elements/1.1/"
   xmlns:cc="http://creativecommons.org/ns#"
   xmlns:rdf="http://www.w3.org/1999/02/22-rdf-syntax-ns#"
   xmlns:svg="http://www.w3.org/2000/svg"
   xmlns="http://www.w3.org/2000/svg"
   xmlns:xlink="http://www.w3.org/1999/xlink"
   xmlns:sodipodi="http://sodipodi.sourceforge.net/DTD/sodipodi-0.dtd"
   xmlns:inkscape="http://www.inkscape.org/namespaces/inkscape"
   width="508mm"
   height="285.75mm"
   viewBox="0 0 508 285.75"
   version="1.1"
   id="svg5155"
   inkscape:version="0.92.3 (2405546, 2018-03-11)"
   sodipodi:docname="bliss_logo_screen.svg"
   inkscape:export-filename="/home/linus/Documents/work/bcu/bliss_webinar/bliss/bliss_logo_screen.png"
   inkscape:export-xdpi="96.091377"
   inkscape:export-ydpi="96.091377">
  <defs
     id="defs5149">
    <linearGradient
       inkscape:collect="always"
       id="linearGradient5739">
      <stop
         style="stop-color:#272a7c;stop-opacity:1;"
         offset="0"
         id="stop5735" />
      <stop
         style="stop-color:#272a7c;stop-opacity:0;"
         offset="1"
         id="stop5737" />
    </linearGradient>
    <linearGradient
       inkscape:collect="always"
       id="linearGradient5167">
      <stop
         style="stop-color:#e6e6e6;stop-opacity:1;"
         offset="0"
         id="stop5163" />
      <stop
         style="stop-color:#e6e6e6;stop-opacity:0;"
         offset="1"
         id="stop5165" />
    </linearGradient>
    <linearGradient
       inkscape:collect="always"
       xlink:href="#linearGradient5167"
       id="linearGradient5169"
       x1="0.12545858"
       y1="11.375451"
       x2="507.87454"
       y2="296.87454"
       gradientUnits="userSpaceOnUse" />
    <linearGradient
       inkscape:collect="always"
       xlink:href="#linearGradient5739"
       id="linearGradient5741"
       x1="204.56552"
       y1="203.519"
       x2="8.4538565"
       y2="-37.623867"
       gradientUnits="userSpaceOnUse" />
    <clipPath
       clipPathUnits="userSpaceOnUse"
       id="clipPath176">
      <path
         d="M 0,841.89 H 595.28 V 0 H 0 Z"
         id="path178"
         inkscape:connector-curvature="0" />
    </clipPath>
    <clipPath
       clipPathUnits="userSpaceOnUse"
       id="clipPath200">
      <path
         d="M 284.958,234.64 H 416.084 V 152.515 H 284.958 Z"
         id="path202"
         inkscape:connector-curvature="0" />
    </clipPath>
    <clipPath
       clipPathUnits="userSpaceOnUse"
       id="clipPath216">
      <path
         d="m 276.334,247.677 h 17.333 V 233.16 h -17.333 z"
         id="path218"
         inkscape:connector-curvature="0" />
    </clipPath>
    <clipPath
       clipPathUnits="userSpaceOnUse"
       id="clipPath232">
      <path
         d="m 254.667,247.719 h 19.5 v -26.042 h -19.5 z"
         id="path234"
         inkscape:connector-curvature="0" />
    </clipPath>
    <clipPath
       clipPathUnits="userSpaceOnUse"
       id="clipPath252">
      <path
         d="m 248.208,227.348 h 33.167 v -19 h -33.167 z"
         id="path254"
         inkscape:connector-curvature="0" />
    </clipPath>
    <clipPath
       clipPathUnits="userSpaceOnUse"
       id="clipPath184-7">
      <path
         inkscape:connector-curvature="0"
         d="m 282.299,241.515 h 22.293 v -8.079 h -22.293 z"
         id="path186-5" />
    </clipPath>
    <clipPath
       clipPathUnits="userSpaceOnUse"
       id="clipPath6036">
      <use
         x="0"
         y="0"
         xlink:href="#g6032"
         id="use6038"
         width="100%"
         height="100%" />
    </clipPath>
  </defs>
  <sodipodi:namedview
     id="base"
     pagecolor="#ffffff"
     bordercolor="#666666"
     borderopacity="1.0"
     inkscape:pageopacity="0.0"
     inkscape:pageshadow="2"
     inkscape:zoom="0.68854167"
     inkscape:cx="960"
     inkscape:cy="649.09659"
     inkscape:document-units="mm"
     inkscape:current-layer="layer1"
     showgrid="false"
     inkscape:window-width="1920"
     inkscape:window-height="1043"
     inkscape:window-x="0"
     inkscape:window-y="0"
     inkscape:window-maximized="1" />
  <metadata
     id="metadata5152">
    <rdf:RDF>
      <cc:Work
         rdf:about="">
        <dc:format>image/svg+xml</dc:format>
        <dc:type
           rdf:resource="http://purl.org/dc/dcmitype/StillImage" />
        <dc:title></dc:title>
      </cc:Work>
    </rdf:RDF>
  </metadata>
  <g
     inkscape:label="Layer 1"
     inkscape:groupmode="layer"
     id="layer1"
     transform="translate(0,-11.249993)">
    <rect
       style="fill:url(#linearGradient5741);fill-opacity:1;stroke:none;stroke-width:0.27173591;stroke-opacity:1;opacity:1"
       id="rect5171"
       width="507.72827"
       height="285.47827"
       x="0.13586795"
       y="11.385861" />
    <g
       id="g6034"
       clip-path="url(#clipPath6036)"
       transform="matrix(3.6666123,0,0,3.6666123,-763.8421,-618.15054)">
      <g
         inkscape:label="Clip"
         id="g6032">
        <path
           id="path206"
           d="m 158.71875,-113.09375 c -7.86369,-0.0199 -15.7711,0.29172 -23.59375,0.0625 6.61433,31.940384 13.23363,63.902463 19.84375,95.84375 L 177.75,-17.125 c 8.84461,-0.0414 19.47021,-0.730506 23.90625,-9.8125 5.46953,-12.18205 1.29754,-29.652392 -11.71875,-35.1875 -6.6913,-0.718241 -0.0161,-3.091082 2.53125,-4.125 8.06344,-5.315457 8.29194,-16.257192 6.5,-24.78125 -0.72863,-9.44711 -7.69679,-17.69397 -16.84375,-20.09375 -7.71738,-1.59028 -15.54256,-1.94885 -23.40625,-1.96875 z m 99.1875,1.1875 c -1.1623,-0.0321 -2.31652,0.0229 -3.4375,0.15625 -4.92137,2.19885 -16.53475,-3.42573 -16.65625,4.1875 4.53912,-0.0363 9.08785,0.0551 13.625,0.0312 7.03106,-0.50765 17.70012,-0.63359 18.65625,8.59375 2.75267,9.839869 -9.11286,10.60213 -15.84375,9.6875 -7.52556,-1.146382 -14.63921,5.175508 -11.90625,12.875 0.0359,9.672309 10.00048,15.361486 18.8125,14.40625 3.78572,-1.848581 18.60908,2.908996 16.875,-4.375 -3.39501,-0.01559 -6.79464,0.03168 -10.1875,-0.09375 -6.81057,0.0049 -17.21919,1.771682 -19.9375,-6.5 -4.57511,-8.396667 4.1527,-13.891817 11.90625,-11.71875 8.28135,1.832425 18.3242,-4.201388 15.0625,-13.59375 -0.29511,-9.092 -8.83262,-13.43146 -16.96875,-13.65625 z m -43.34375,0.25 c -5.42621,0.11766 -10.97475,3.33503 -10.96875,9.40625 2.57334,20.360972 6.28594,40.574567 9.34375,60.875 h 5.3125 l -1.96875,-12.375 c -2.32085,-15.387853 -5.13464,-30.735119 -7.0625,-46.15625 -2.315,-9.17735 12.58802,-4.3968 10.53125,-10.8125 -1.57436,-0.65203 -3.37876,-0.97672 -5.1875,-0.9375 z m 12.4375,0.0625 c -0.54506,0.0421 -1.18461,0.17398 -1.875,0.40625 l 7.75,48.75 h 5.3125 l -6.625,-41.875 c -0.27369,-3.56724 -0.7471,-7.57625 -4.5625,-7.28125 z m 65.5,0.625 c -4.91539,2.22305 -16.50867,-3.39238 -16.625,4.21875 4.53908,-0.0362 9.05664,0.0551 13.59375,0.0312 7.02466,-0.50289 17.72582,-0.65797 18.6875,8.5625 2.74033,9.829583 -9.14237,10.611681 -15.875,9.6875 -7.53734,-1.174747 -14.6051,5.172132 -11.875,12.875 9.1e-4,9.682082 9.96728,15.365532 18.78125,14.40625 3.78414,-1.879803 18.62787,2.922599 16.875,-4.375 -3.38668,-0.01548 -6.77172,0.03152 -10.15625,-0.09375 -6.81384,0.0064 -17.21591,1.772949 -19.9375,-6.5 -4.76257,-8.763569 4.66578,-13.893967 12.46875,-11.6875 8.36702,1.822293 17.83529,-4.935221 14.40625,-14 -0.48203,-10.23146 -11.52903,-14.14337 -20.34375,-13.125 z m -56.09375,59.40625 c -2.87597,0.843884 -3.01029,7.53786 0.3125,9.53125 6.0993,1.327785 4.15934,-4.131834 3.4375,-8.03125 -1.53765,-1.408239 -2.79134,-1.781295 -3.75,-1.5 z"
           style="fill:#e6e6e6;fill-opacity:1;fill-rule:nonzero"
           inkscape:original="M 158.71875 -113.09375 C 150.85506 -113.11365 142.94765 -112.80203 135.125 -113.03125 C 141.73933 -81.090866 148.35863 -49.128787 154.96875 -17.1875 L 177.75 -17.125 C 186.59461 -17.166395 197.22021 -17.855506 201.65625 -26.9375 C 207.12578 -39.11955 202.95379 -56.589892 189.9375 -62.125 C 183.2462 -62.843241 189.92137 -65.216082 192.46875 -66.25 C 200.53219 -71.565457 200.76069 -82.507192 198.96875 -91.03125 C 198.24012 -100.47836 191.27196 -108.72522 182.125 -111.125 C 174.40762 -112.71528 166.58244 -113.07385 158.71875 -113.09375 z M 257.90625 -111.90625 C 256.74395 -111.93836 255.58973 -111.88338 254.46875 -111.75 C 249.54738 -109.55115 237.934 -115.17573 237.8125 -107.5625 C 242.35162 -107.5988 246.90035 -107.50735 251.4375 -107.53125 C 258.46856 -108.0389 269.13762 -108.16484 270.09375 -98.9375 C 272.84642 -89.097631 260.98089 -88.33537 254.25 -89.25 C 246.72444 -90.396382 239.61079 -84.074492 242.34375 -76.375 C 242.3796 -66.702691 252.34423 -61.013514 261.15625 -61.96875 C 264.94197 -63.817331 279.76533 -59.059754 278.03125 -66.34375 C 274.63624 -66.35934 271.23661 -66.312072 267.84375 -66.4375 C 261.03318 -66.432631 250.62456 -64.665818 247.90625 -72.9375 C 243.33114 -81.334167 252.05895 -86.829317 259.8125 -84.65625 C 268.09385 -82.823825 278.1367 -88.857638 274.875 -98.25 C 274.57989 -107.342 266.04238 -111.68146 257.90625 -111.90625 z M 214.5625 -111.65625 C 209.13629 -111.53859 203.58775 -108.32122 203.59375 -102.25 C 206.16709 -81.889028 209.87969 -61.675433 212.9375 -41.375 L 218.25 -41.375 L 216.28125 -53.75 C 213.9604 -69.137853 211.14661 -84.485119 209.21875 -99.90625 C 206.90375 -109.0836 221.80677 -104.30305 219.75 -110.71875 C 218.17564 -111.37078 216.37124 -111.69547 214.5625 -111.65625 z M 227 -111.59375 C 226.45494 -111.55161 225.81539 -111.41977 225.125 -111.1875 L 232.875 -62.4375 L 238.1875 -62.4375 L 231.5625 -104.3125 C 231.28881 -107.87974 230.8154 -111.88875 227 -111.59375 z M 292.5 -110.96875 C 287.58461 -108.7457 275.99133 -114.36113 275.875 -106.75 C 280.41408 -106.7862 284.93164 -106.69485 289.46875 -106.71875 C 296.49341 -107.22164 307.19457 -107.37672 308.15625 -98.15625 C 310.89658 -88.326667 299.01388 -87.544569 292.28125 -88.46875 C 284.74391 -89.643497 277.67615 -83.296618 280.40625 -75.59375 C 280.40716 -65.911668 290.37353 -60.228218 299.1875 -61.1875 C 302.97164 -63.067303 317.81537 -58.264901 316.0625 -65.5625 C 312.67582 -65.57798 309.29078 -65.530982 305.90625 -65.65625 C 299.09241 -65.649854 288.69034 -63.883301 285.96875 -72.15625 C 281.20618 -80.919819 290.63453 -86.050217 298.4375 -83.84375 C 306.80452 -82.021457 316.27279 -88.778971 312.84375 -97.84375 C 312.36172 -108.07521 301.31472 -111.98712 292.5 -110.96875 z M 236.40625 -51.5625 C 233.53028 -50.718616 233.39596 -44.02464 236.71875 -42.03125 C 242.81805 -40.703465 240.87809 -46.163084 240.15625 -50.0625 C 238.6186 -51.470739 237.36491 -51.843795 236.40625 -51.5625 z "
           inkscape:radius="0"
           sodipodi:type="inkscape:offset"
           transform="matrix(0.33072917,0,0,-0.33072917,240.04262,208.79671)" />
        <path
           sodipodi:nodetypes="cccccccccccsccccccscccscccccccccccsccccccsscccccsccccccccscccccccsscccccccccccccscccccccccccccccccccccccccccccccccccccccccscccccssccccccscccccccscccccssccccccccccsccsccccccscsccccccccccccccccccsscccscccccsccccscccccssccccccsccccccccccccccccccccccccccsccccccsscccsccccccsccccscccccssccccccsccccssccccssssccsssccccsscc"
           id="path3703"
           inkscape:connector-curvature="0"
           d="m 284.19991,246.69429 0.12402,-0.59944 0.88883,-4.32015 c 0.0817,-0.3242 0.16798,-0.80686 0.25839,-1.18856 l 0.89248,-4.31423 4.52321,-21.86505 0.0723,-0.39274 h 0.40307 c 2.68029,-0.005 5.36056,-0.031 8.04086,-0.031 l -0.0468,-0.003 c 3.02864,0.0523 5.25857,0.55572 6.58357,1.81901 1.37627,1.28264 2.09316,3.14993 2.09316,5.42874 0,0.82854 -0.0564,1.62016 -0.1757,2.36678 v 0.0103 c -0.27356,1.61023 -0.96724,3.04811 -2.05672,4.28914 -0.75277,0.85995 -1.68313,1.50082 -2.74919,1.94304 1.03447,0.45586 1.8512,1.05252 2.41846,1.81901 0.003,0.004 0.007,0.007 0.0103,0.0103 0.83601,1.06802 1.21956,2.56303 1.21956,4.43383 0,0.89092 -0.0935,1.84788 -0.26871,2.87321 -5.3e-4,0.004 5.3e-4,0.007 0,0.0103 -0.44905,2.85857 -1.76321,4.98637 -3.90674,6.21151 -2.13385,1.20609 -5.19302,1.49864 -8.89868,1.49861 h -8.81601 -0.60978 z m 40.55566,-0.42374 c -0.8419,0 -1.96397,-0.0336 -3.38998,-0.11369 -1.41103,-0.0612 -2.33618,-0.12468 -2.85253,-0.21704 l -0.47543,-0.093 0.0724,-0.47543 0.16537,-1.0542 0.0723,-0.42374 h 0.42375 6.44922 c 1.20595,0 2.09022,-0.17148 2.63549,-0.45476 0.51195,-0.27244 0.87218,-0.84086 1.03353,-1.86035 l 0.12402,-0.78548 c 0.11432,-0.72195 -0.0204,-1.12342 -0.36173,-1.42627 h -0.0103 v -0.0103 c -0.33524,-0.31354 -0.98053,-0.5271 -2.00505,-0.5271 h -2.18074 c -1.63652,0 -2.90348,-0.30038 -3.77238,-0.99219 -0.90429,-0.72059 -1.18926,-1.9453 -0.95085,-3.45198 v -0.0103 l 0.13436,-0.81649 c 0.25081,-1.58669 0.92694,-2.81437 2.02572,-3.58634 1.11965,-0.79116 2.66031,-1.14722 4.5992,-1.14722 0.85792,0 1.8779,0.0333 3.05925,0.11369 0.004,2.2e-4 0.006,-2.3e-4 0.0103,0 1.18585,0.0614 2.10182,0.14232 2.75952,0.24804 l 0.49609,0.0827 -0.0827,0.48576 -0.1757,1.08521 -0.062,0.42374 h -0.42375 -6.05647 c -1.16636,0 -2.02474,0.20021 -2.58383,0.54777 -0.004,0.002 -0.007,0.008 -0.0103,0.0103 -0.50292,0.33252 -0.84814,0.91591 -1.00252,1.89136 l -0.11369,0.69247 v 0.0103 c -0.071,0.44973 -0.0529,0.79377 0.0103,1.03352 0.0632,0.23976 0.15637,0.37207 0.31006,0.47543 0.4032,0.23627 1.1639,0.40307 2.27376,0.40307 h 2.21175 c 1.50509,0 2.71478,0.3571 3.53467,1.15756 v 0.0103 c 0.002,0.001 0.009,-0.001 0.0103,0 0.84483,0.78667 1.14443,1.9568 0.93018,3.30729 l -0.16537,1.02319 c -0.25593,1.61505 -0.99585,2.84863 -2.20141,3.514 v -0.0103 c -1.14682,0.64403 -2.63489,0.94051 -4.46485,0.94051 z m -13.9113,-0.1447 c -1.42669,0 -2.56982,-0.43155 -3.2246,-1.35392 v -0.0103 -0.0103 c -0.64611,-0.97654 -0.72231,-2.42082 -0.41342,-4.37183 l 2.84221,-17.95239 0.0723,-0.42375 h 0.42375 1.74666 0.58911 l -0.093,0.57878 -2.8112,17.76636 c -0.15591,0.98049 -0.1815,1.72534 -0.10335,2.17041 0.0821,0.46779 0.23233,0.70407 0.40308,0.82682 0.20864,0.15067 0.56199,0.27635 1.06453,0.33073 l 0.0103,0.0103 1.71566,0.20671 0.50643,0.062 -0.0723,0.51676 -0.20671,1.24024 -0.062,0.41341 h -0.42374 -1.9637 z m 3.15227,-0.031 0.093,-0.57878 2.56315,-16.13338 0.062,-0.41341 h 0.42374 1.757 0.57878 l -0.093,0.56844 -2.55281,16.13338 -0.062,0.42375 h -0.42375 -1.76733 z m 23.34741,-0.0724 c -0.84265,0 -1.98219,-0.0549 -3.40031,-0.13436 v 0.0103 c -1.41113,-0.0612 -2.32688,-0.13519 -2.8422,-0.22738 l -0.47543,-0.0827 0.0723,-0.48575 0.16537,-1.0542 0.062,-0.42375 h 0.42374 6.44922 c 1.20069,0 2.08963,-0.17365 2.6355,-0.45475 0.002,-0.001 0.008,0.001 0.0103,0 0.51136,-0.27507 0.86254,-0.82465 1.02319,-1.83968 l 0.12402,-0.78549 c 0.11432,-0.72194 -0.0204,-1.13375 -0.36173,-1.4366 -0.33749,-0.31564 -0.99338,-0.53743 -2.01538,-0.53743 h -2.18075 c -1.63478,0 -2.90168,-0.29893 -3.77238,-0.99219 -0.9075,-0.72313 -1.17867,-1.95721 -0.94051,-3.46232 l 0.12403,-0.80615 c 0.24985,-1.58069 0.9221,-2.82306 2.01538,-3.59668 v -0.0103 c 0.002,-0.001 0.008,0.001 0.0103,0 1.11906,-0.78759 2.66444,-1.14722 4.5992,-1.14722 0.86404,0 1.88529,0.0432 3.06958,0.12402 1.19009,0.0613 2.09589,0.14137 2.75952,0.24805 l 0.48576,0.0724 -0.0724,0.49609 -0.1757,1.08521 -0.062,0.42374 h -0.42375 -6.05647 c -1.17324,0 -2.02494,0.20684 -2.58383,0.55811 -0.50926,0.33118 -0.85729,0.91873 -1.01285,1.90169 l -0.11369,0.69247 c -0.0707,0.4484 -0.0543,0.79379 0.0103,1.03353 0.0647,0.23973 0.16568,0.37138 0.32039,0.47542 0.40019,0.2342 1.16178,0.39274 2.27377,0.39274 h 2.21175 c 1.50705,0 2.71618,0.36869 3.53467,1.16789 0.003,0.003 0.007,0.007 0.0103,0.0103 0.84334,0.78526 1.14437,1.9468 0.93017,3.29695 v 0.0104 l -0.16536,1.0232 c -5.3e-4,0.003 5.2e-4,0.007 0,0.0103 -0.25746,1.60997 -0.99844,2.83971 -2.20142,3.50366 -1.14682,0.64406 -2.63489,0.94051 -4.46484,0.94051 z m -51.92448,-0.32039 h 8.20622 c 3.64842,3e-5 6.58199,-0.33972 8.41292,-1.37459 1.87553,-1.07196 3.00659,-2.85667 3.42098,-5.50871 0.16819,-0.98137 0.24805,-1.88856 0.24805,-2.71818 0,-1.74224 -0.36135,-3.00748 -1.01286,-3.83439 l -0.0103,-0.0103 c -0.63212,-0.85972 -1.70941,-1.52326 -3.30729,-1.96371 l 0.031,-0.96118 c 1.51731,-0.3253 2.70045,-1.027 3.63802,-2.09806 0.9789,-1.11508 1.58565,-2.35856 1.82934,-3.79305 0.11025,-0.69007 0.16537,-1.43162 0.16537,-2.21175 0,-2.08814 -0.5845,-3.60841 -1.73633,-4.68189 -1.0702,-1.02035 -3.20465,-1.57096 -6.39754,-1.57096 h -0.4961 l -6.63525,0.031 -5.35368,25.85888 -0.0103,0.062 -0.0207,0.0517 -0.062,0.12403 0.0413,0.0103 -0.093,0.43408 -0.85783,4.15479 z m 39.3361,-0.42375 c 1.72141,0 3.04231,-0.28008 3.97909,-0.80615 h 0.0103 c 0.91574,-0.50541 1.47136,-1.38976 1.69498,-2.80086 l 0.16537,-1.02319 c 0.1817,-1.14537 -0.039,-1.89372 -0.63046,-2.43913 h -0.0103 v -0.0103 c -0.57499,-0.56628 -1.49721,-0.8785 -2.85253,-0.8785 h -2.21175 c -1.21718,0 -2.14189,-0.15401 -2.8112,-0.55811 l -0.0103,-0.0103 h -0.0103 c -0.35728,-0.24028 -0.60047,-0.61645 -0.71314,-1.04386 -0.11266,-0.42741 -0.10582,-0.90713 -0.0207,-1.44694 l 0.10336,-0.69247 v -0.0103 c 0.18309,-1.15685 0.65112,-2.056 1.44694,-2.57348 h 0.0103 c 0.78717,-0.49476 1.83319,-0.71314 3.12125,-0.71314 h 5.63273 l 0.0207,-0.14469 c -0.57737,-0.0748 -1.2176,-0.14727 -2.17041,-0.19637 h -0.0103 c -1.16769,-0.0797 -2.16404,-0.11369 -2.99723,-0.11369 -1.81489,0 -3.15083,0.33941 -4.03076,0.96118 -0.85385,0.59989 -1.39083,1.53408 -1.61231,2.93522 v 0.0103 l -0.13436,0.81649 c -0.20873,1.31912 0.025,2.07226 0.58911,2.52181 0.60152,0.47892 1.64157,0.77514 3.15227,0.77514 h 2.18074 c 1.1501,0 2.06231,0.21754 2.67684,0.78549 0.003,0.003 0.007,0.007 0.0103,0.0103 0.60595,0.54547 0.81853,1.3884 0.67179,2.3151 l -0.12402,0.78548 c -0.18988,1.19968 -0.69632,2.12935 -1.55029,2.58382 h -0.0103 c -0.775,0.40263 -1.79457,0.56845 -3.09025,0.56845 h -6.02547 l -0.0207,0.11368 c 0.47681,0.0587 1.08645,0.11567 2.23242,0.16537 h 0.0103 c 1.41363,0.0794 2.52523,0.11368 3.3383,0.11368 z m -13.9113,-0.14469 h 1.53996 l 0.0517,-0.31006 -1.19889,-0.15503 h -0.0103 c -0.60539,-0.0666 -1.12417,-0.22397 -1.52962,-0.51676 -0.44574,-0.32043 -0.69708,-0.84601 -0.80615,-1.46761 -0.11302,-0.6437 -0.0615,-1.45385 0.10335,-2.49081 l 2.71818,-17.19791 h -0.74414 l -2.78019,17.53898 c -0.29011,1.83232 -0.14215,3.05794 0.24804,3.65869 0.003,0.004 0.007,0.006 0.0103,0.0103 0.43572,0.60452 1.16893,0.93017 2.39779,0.93017 z m 4.32015,-0.031 h 0.74414 l 2.39779,-15.14119 h -0.74414 z m 22.17953,-0.0724 c 1.72141,0 3.04231,-0.29039 3.97908,-0.81648 0.91575,-0.50542 1.48171,-1.38974 1.70533,-2.80087 l 0.16536,-1.03353 c 0.18176,-1.14569 -0.0375,-1.87162 -0.63045,-2.41845 l -0.0103,-0.0103 h -0.0103 c -0.57641,-0.56766 -1.4888,-0.89917 -2.84221,-0.89917 h -2.21175 c -1.21484,0 -2.13867,-0.14174 -2.81119,-0.54777 l -0.0103,-0.0103 h -0.0103 c -0.35627,-0.23958 -0.60816,-0.61645 -0.72347,-1.04387 -0.11532,-0.42741 -0.11638,-0.9058 -0.031,-1.44694 v -0.0103 l 0.12402,-0.68212 c 5.3e-4,-0.003 -5.3e-4,-0.007 0,-0.0103 0.1843,-1.15182 0.65358,-2.05757 1.44694,-2.57349 h 0.0103 c 0.78712,-0.49476 1.8228,-0.71314 3.11085,-0.71314 h 5.6224 l 0.031,-0.14469 c -0.57366,-0.0725 -1.20633,-0.14724 -2.16008,-0.19637 h -0.0103 c -1.16984,-0.0799 -2.17761,-0.12402 -3.00756,-0.12402 -1.81488,0 -3.15082,0.34976 -4.03077,0.97151 -0.85004,0.5972 -1.38969,1.5399 -1.6123,2.93522 v 0.0103 l -0.12402,0.80616 c -0.20899,1.32069 0.0178,2.08517 0.57877,2.53214 0.59973,0.47752 1.63982,0.77515 3.15226,0.77515 h 2.18075 c 1.15474,0 2.0645,0.22752 2.67684,0.79582 v 0.0103 c 0.60986,0.54533 0.82927,1.3858 0.68213,2.3151 l -0.12403,0.78548 c -0.18993,1.20008 -0.68875,2.11015 -1.53995,2.56315 h -0.0103 c -0.77502,0.40267 -1.80491,0.56844 -3.10059,0.56844 h -6.01513 l -0.0207,0.11369 c 0.47534,0.0587 1.07706,0.12605 2.22208,0.1757 h 0.0103 c 1.41545,0.0795 2.53888,0.12402 3.34864,0.12402 z M 317.91361,226.2718 c -0.24355,0 -0.51923,-0.0944 -0.69246,-0.29972 -0.17352,-0.20734 -0.21027,-0.49643 -0.1757,-0.72347 v -0.0103 l 0.34106,-2.13941 c 0.0372,-0.23212 0.13568,-0.47348 0.33073,-0.64079 0.19505,-0.1673 0.45831,-0.23771 0.69246,-0.23771 h 1.16789 c 0.22675,0 0.5181,0.0889 0.68213,0.3204 0.16403,0.23147 0.16898,0.49266 0.13436,0.71313 l -0.34106,2.14974 c -0.0347,0.21871 -0.11268,0.43543 -0.28939,0.60978 -0.17672,0.17435 -0.4343,0.25838 -0.66146,0.25838 z m 0.13436,-0.99219 h 1.01286 c 0.003,-0.008 0.003,0.0121 0.0103,-0.031 l 0.32039,-2.03605 h -0.98185 c -0.0688,0 -0.0597,0.0157 -0.0413,0 0.0184,-0.0157 0.0114,-0.0298 0,0.0413 z"
           style="color:#000000;font-style:normal;font-variant:normal;font-weight:normal;font-stretch:normal;font-size:medium;line-height:normal;font-family:Sans;-inkscape-font-specification:Sans;text-indent:0;text-align:start;text-decoration:none;text-decoration-line:none;letter-spacing:normal;word-spacing:normal;text-transform:none;writing-mode:lr-tb;direction:ltr;baseline-shift:baseline;text-anchor:start;display:inline;overflow:visible;visibility:visible;fill:#e6e6e6;fill-opacity:1;fill-rule:nonzero;stroke:none;stroke-width:0;marker:none;enable-background:accumulate" />
        <path
           sodipodi:nodetypes="cccccccccccsccccsc"
           inkscape:connector-curvature="0"
           id="path170-3"
           d="m 297.0861,227.85002 c -1.90911,0.0178 -3.25733,1.62062 -4.26625,3.053 -1.41706,1.53773 -3.17325,2.71718 -4.74184,4.09296 -0.67985,0.72871 -1.89277,1.20689 -2.07382,2.25238 0.51633,1.24758 -0.65347,1.97921 -1.38884,2.76612 -1.84021,1.89933 -3.82354,3.69065 -5.38057,5.83928 -0.49607,0.5537 -0.73961,1.76062 0.30405,1.70831 0.32287,0.30386 0.56512,0.30553 0.47426,0.82093 0.9579,-0.32791 1.73774,-1.07425 2.55,-1.6751 2.06115,-1.69508 3.75037,-3.79869 5.83885,-5.45824 1.76436,-1.3509 3.9709,-1.83873 5.95464,-2.74772 0.72851,-0.41094 1.38921,-0.948 1.92798,-1.58339 0.65624,-0.77393 1.13159,-1.69374 1.32831,-2.70926 0.37594,-1.23329 0.26214,-2.69703 1.01939,-3.74651 1.06904,-0.283 2.18675,-0.46665 3.25768,-0.7028 -0.89669,-0.14262 -1.79338,-0.28519 -2.67891,-0.48783 -0.0274,-0.41006 -0.24322,-0.7212 -0.54727,-0.9463 -0.44206,-0.32729 -1.07061,-0.4727 -1.57766,-0.47583 z"
           style="fill:#46ac32;fill-opacity:1;fill-rule:nonzero;stroke:#272a7c;stroke-width:0.29104167;stroke-miterlimit:4;stroke-dasharray:none;stroke-opacity:1" />
        <g
           transform="matrix(0.33072917,0,0,-0.33072917,206.70512,296.10921)"
           id="g172">
          <g
             clip-path="url(#clipPath176)"
             id="g174">
            <g
               id="g196">
              <g
                 id="g198" />
              <g
                 id="g204">
                <g
                   style="opacity:0.69999701"
                   id="g206"
                   clip-path="url(#clipPath200)">
                  <g
                     id="g208"
                     transform="translate(284.9585,234.6396)">
                    <path
                       sodipodi:nodetypes="ccccc"
                       inkscape:connector-curvature="0"
                       id="path210"
                       style="fill:#ffffff;fill-opacity:1;fill-rule:nonzero;stroke:none"
                       d="M 1.6970563,-0.91923882 116.25,-82.125 130.875,-82 l 0.25,19.5 z" />
                  </g>
                </g>
              </g>
            </g>
            <g
               id="g212">
              <g
                 id="g214" />
              <g
                 id="g220">
                <g
                   style="opacity:0.5"
                   id="g222"
                   clip-path="url(#clipPath216)">
                  <g
                     id="g224"
                     transform="translate(293.6675,245.8477)" />
                </g>
              </g>
            </g>
            <g
               transform="matrix(1.0480122,0,0,1,-13.146359,0)"
               id="g228">
              <g
                 id="g230" />
              <g
                 id="g236">
                <g
                   style="opacity:0.5"
                   id="g238"
                   clip-path="url(#clipPath232)">
                  <g
                     id="g240"
                     transform="translate(274.1665,221.6768)">
                    <path
                       sodipodi:nodetypes="ccccc"
                       inkscape:connector-curvature="0"
                       id="path242"
                       style="fill:#272a7c;fill-opacity:1;fill-rule:nonzero;stroke:none"
                       d="M -0.35355339,0.70710678 -19.5,18.083 l 1.667,7.875 9.25,0.084 z" />
                  </g>
                </g>
              </g>
            </g>
            <g
               transform="translate(273.687,202.3896)"
               id="g244">
              <path
                 inkscape:connector-curvature="0"
                 id="path246"
                 style="fill:#283172;fill-opacity:1;fill-rule:nonzero;stroke:none"
                 d="m 0,0 c 0,-0.76 -0.615,-1.375 -1.375,-1.375 -0.76,0 -1.375,0.615 -1.375,1.375 0,0.76 0.615,1.375 1.375,1.375 C -0.615,1.375 0,0.76 0,0" />
            </g>
            <g
               style="fill:#0000ff"
               transform="matrix(1.0240673,0,0,1,-6.751519,0)"
               id="g248">
              <g
                 style="fill:#0000ff"
                 id="g250" />
              <g
                 style="fill:#0000ff"
                 id="g256">
                <g
                   style="opacity:0.80000299;fill:#0000ff"
                   id="g258"
                   clip-path="url(#clipPath252)">
                  <g
                     style="fill:#0000ff"
                     id="g260"
                     transform="translate(281.3755,217.0566)">
                    <path
                       sodipodi:nodetypes="cccc"
                       inkscape:connector-curvature="0"
                       id="path262"
                       style="fill:#272a7c;fill-opacity:1;fill-rule:nonzero;stroke:none"
                       d="M -0.84852814,0.6363961 -33.167,-8.709 l 3.917,19 z" />
                  </g>
                </g>
              </g>
            </g>
            <g
               transform="translate(294.5171,226.1113)"
               id="g268" />
            <g
               transform="translate(352.8594,370.3262)"
               id="g312" />
            <g
               style="fill:#0000ff"
               id="g180"
               transform="matrix(1.0443058,0,0,1,-13.601948,0.36176)">
              <g
                 style="fill:#0000ff"
                 id="g182" />
              <g
                 style="fill:#0000ff"
                 transform="rotate(2.2515536,293.4453,237.47524)"
                 id="g188">
                <g
                   style="opacity:0.80000299;fill:#0000ff"
                   id="g190"
                   clip-path="url(#clipPath184-7)">
                  <g
                     style="fill:#0000ff"
                     id="g192"
                     transform="translate(282.2993,235.1855)">
                    <path
                       sodipodi:nodetypes="ccccc"
                       inkscape:connector-curvature="0"
                       id="path194"
                       style="fill:#272a7c;fill-opacity:1;fill-rule:nonzero;stroke:none"
                       d="M -0.13253885,0.07597638 18.207,6.329 c 0,0 1.421,-1.484 2.543,-3.662 1.269,-2.463 1.542,-4.417 1.542,-4.417 z" />
                  </g>
                </g>
              </g>
            </g>
            <g
               style="stroke:#ffffff;stroke-width:0.88;stroke-miterlimit:4;stroke-dasharray:none;stroke-opacity:1"
               transform="translate(290.45341,227.91117)"
               id="g272">
              <path
                 sodipodi:nodetypes="cssssc"
                 inkscape:connector-curvature="0"
                 id="path274"
                 style="fill:#46ac32;fill-opacity:1;fill-rule:nonzero;stroke:#272a7c;stroke-width:0.88;stroke-miterlimit:4;stroke-dasharray:none;stroke-opacity:1"
                 d="m 0,-1.387868 c 0,-4.846 -3.93,-8.775 -8.775,-8.775 -4.846,0 -8.776,3.929 -8.776,8.775 0,4.847 3.93,8.775 8.776,8.775 2.8101122,0 5.3124157,-1.3213906 6.9186402,-3.3770723 C -0.69324371,2.521478 0,0.64785982 0,-1.387868" />
            </g>
          </g>
        </g>
        <path
           sodipodi:nodetypes="ccccc"
           inkscape:connector-curvature="0"
           id="path226"
           style="opacity:0.5;fill:#272a7c;fill-opacity:1;fill-rule:nonzero;stroke:none;stroke-width:0.33072916"
           d="m 301.97044,214.41207 c 0,0 -1.03745,-0.20507 -1.98981,-0.23528 -1.05228,-0.0805 -2.06691,0.006 -2.06691,0.006 l -0.38958,5.31604 z" />
      </g>
    </g>
  </g>
</svg>
